# xmcd
#
# Track frame offsets:
#	150
#	18498
#	39346
#	58076
#	82565
#	129706
#	149843
#	168244
#	185635
#	206066
#	219403
#	251975
#
# Disc length: 3631 seconds
#
# Revision: 65538
# Processed by: cddbd v1.5.2PL0 Copyright (c) Steve Scherf et al.
# Submitted via: EZCDAudioConverter 8.2.2.1
#
DISCID=b10e2d0c
DTITLE=Zac Brown Band - S Live From The Fabulous Fox Theatre In Atlanta
DYEAR=2010
DGENRE=Country
TTITLE0=Zac Brown Band - Whatever It Is
TTITLE1=Zac Brown Band - Let It Go
TTITLE2=Zac Brown Band - It's Not Ok
TTITLE3=Zac Brown Band - Jolene
TTITLE4=Zac Brown Band - Who Knows
TTITLE5=Zac Brown Band - The Night They Drove Old Dixie Down
TTITLE6=Zac Brown Band - Sic 'em On A Chicken
TTITLE7=Zac Brown Band - Where The Boat Leaves From
TTITLE8=Zac Brown Band Feat. Aslyn - Trying To Drive
TTITLE9=Zac Brown Band Feat. Barry Waldrep - Alabama Jubilee
TTITLE10=Zac Brown Band Feat. Matt Mangano - Blackbird
TTITLE11=Zac Brown Band - The Devil Went Down To Georgia
EXTD=
EXTT0=
EXTT1=
EXTT2=
EXTT3=
EXTT4=
EXTT5=
EXTT6=
EXTT7=
EXTT8=
EXTT9=
EXTT10=
EXTT11=
PLAYORDER=
